<svg width="36" height="63" viewBox="0 0 36 63" fill="none" xmlns="http://www.w3.org/2000/svg">
<path d="M15.8864 2.12869C21.3133 8.85102 13.1924 19.0462 3.22192 36.2149C-6.74859 53.3837 15.5532 62.0379 17.3306 62.2054C19.1081 62.3729 8.66544 55.6449 11.9704 45.4274C15.2754 35.2099 23.2241 29.4256 25.2182 21.6257C27.2123 13.8258 10.4596 -4.59365 15.8864 2.12869Z" fill="#005FBF"/>
<path d="M27.0355 21.2753C27.5766 22.381 27.8296 24.4023 27.2288 26.7879C26.628 29.1736 25.7858 30.9491 23.9328 33.8565C22.0798 36.764 20.0881 38.6625 16.6619 44.8635C13.2358 51.0645 20.2245 57.1831 18.888 55.0793C17.5514 52.9754 19.1704 48.7105 21.2943 46.1301C23.4182 43.5497 24.8503 41.5309 26.2644 39.4498C29.0926 35.2875 29.8308 32.626 29.8448 30.3181C29.8587 28.0102 29.8313 27.2751 28.9246 24.7933C28.0179 22.3116 25.9535 19.0639 27.0355 21.2753Z" fill="#005FBF"/>
<path d="M21.1556 60.5401C20.2937 62.0748 20.0477 57.3088 21.5817 53.1831C23.1157 49.0573 27.958 45.4284 30.0401 41.5256C32.1221 37.6228 33.4369 31.7207 31.7677 28.5809C30.0985 25.4411 32.0624 28.9422 33.4695 31.1889C34.8765 33.4356 35.6684 35.0866 35.6332 38.7604C35.598 42.4343 34.6429 46.7417 28.3372 52.3745C22.0315 58.0072 22.0175 59.0053 21.1556 60.5401Z" fill="#005FBF"/>
</svg>
