<svg width="133" height="114" viewBox="0 0 133 114" fill="none" xmlns="http://www.w3.org/2000/svg">
<path d="M64.2198 26.4487C69.6466 33.171 61.5258 43.3662 51.5553 60.5349C41.5847 77.7037 63.8865 86.3579 65.664 86.5254C67.4414 86.6929 56.9988 79.9649 60.3038 69.7474C63.6087 59.5299 71.5574 53.7456 73.5515 45.9457C75.5456 38.1458 58.7929 19.7264 64.2198 26.4487Z" fill="#005FBF"/>
<path d="M75.3689 45.5953C75.9099 46.701 76.1629 48.7223 75.5621 51.1079C74.9613 53.4936 74.1192 55.2691 72.2661 58.1765C70.4131 61.084 68.4214 62.9825 64.9952 69.1835C61.5691 75.3845 68.5578 81.5031 67.2213 79.3992C65.8847 77.2954 67.5038 73.0305 69.6276 70.4501C71.7515 67.8697 73.1836 65.8509 74.5977 63.7698C77.4259 59.6075 78.1641 56.946 78.1781 54.6381C78.1921 52.3302 78.1646 51.5951 77.2579 49.1133C76.3513 46.6316 74.2868 43.3839 75.3689 45.5953V45.5953Z" fill="#005FBF"/>
<path d="M69.4889 84.8601C68.627 86.3948 68.3811 81.6288 69.9151 77.5031C71.4491 73.3773 76.2914 69.7484 78.3734 65.8456C80.4554 61.9428 81.7703 56.0407 80.101 52.9009C78.4318 49.7611 80.3958 53.2622 81.8028 55.5089C83.2098 57.7556 84.0017 59.4066 83.9665 63.0804C83.9314 66.7543 82.9763 71.0617 76.6706 76.6945C70.3649 82.3272 70.3508 83.3253 69.4889 84.8601V84.8601Z" fill="#005FBF"/>
</svg>
