<svg id="Capa_1" enable-background="new 0 0 512 512" height="512" viewBox="0 0 512 512" width="512" xmlns="http://www.w3.org/2000/svg"><g><path d="m361 392v60l-105 30-105-30v-60l105-30z" fill="#004080"/><path d="m361 452v-60l-105-30v120z" fill="#00264d"/><g><path d="m391 270h-255c-57.891 0-105-47.109-105-105s47.109-105 105-105c9.873 0 19.512 1.348 28.857 3.999 20.538-38.804 61.524-63.999 106.143-63.999 55.254 0 102.832 37.808 116.221 90.073 50.625-2.285 93.779 39.024 93.779 89.927 0 49.629-40.371 90-90 90z" fill="#e6f6ff"/></g><path d="m387.221 90.073c-13.389-52.265-60.967-90.073-116.221-90.073-5.061 0-10.056.419-15 1.051v268.949h135c49.629 0 90-40.371 90-90 0-50.903-43.154-92.212-93.779-89.927z" fill="#bee3ed"/><g id="Upload_Data_2_"><g><path d="m310.668 168.457-44.044-44.044c-5.79-5.806-15.366-5.897-21.248 0l-44.044 44.044c-5.859 5.859-5.859 15.352 0 21.211s15.352 5.859 21.211 0l18.457-18.457v175.789c0 8.291 6.709 15 15 15s15-6.709 15-15v-175.789l18.457 18.457c2.93 2.93 6.768 4.395 10.605 4.395s7.676-1.465 10.605-4.395c5.86-5.859 5.86-15.352.001-21.211z" fill="#28e7ef"/></g></g><path d="m266.624 124.413c-2.904-2.911-6.76-4.378-10.624-4.382v241.969c8.291 0 15-6.709 15-15v-175.789l18.457 18.457c2.93 2.93 6.768 4.395 10.605 4.395s7.676-1.465 10.605-4.395c5.859-5.859 5.859-15.352 0-21.211z" fill="#1cace7"/><g><path d="m361 452v45c0 8.399-6.599 15-15 15h-180c-8.401 0-15-6.601-15-15v-45z" fill="#366ab3"/><g><path d="m361 497v-45h-105v60h90c8.401 0 15-6.601 15-15z" fill="#004080"/></g><path d="m361 347v45h-210v-45c0-8.401 6.599-15 15-15h180c8.401 0 15 6.599 15 15z" fill="#366ab3"/><path d="m346 332h-90v60h105v-45c0-8.401-6.599-15-15-15z" fill="#004080"/></g></g></svg>